# xmcd
#
# Track frame offsets:
#	150
#	9857
#	25986
#	35801
#	44116
#	58778
#	72529
#	83798
#	98548
#	111821
#	120354
#	137852
#	152309
#	162428
#	174053
#	184486
#
# Disc length: 2696 seconds
#
# Revision: 1
# Processed by: cddbd v1.5.2PL0 Copyright (c) Steve Scherf et al.
# Submitted via: audiograbber 1.83.01
#
DISCID=d00a8610
DTITLE=Various Artist - A Country Christmas CD2
DYEAR=1900
DGENRE=Christmas
TTITLE0=Willie Nelson - We Wish You A Merry Christmas
TTITLE1=Kate Smith - White Christmas
TTITLE2=Gene Autry - Silver Bells
TTITLE3=Kitty Wells - Santa's On His Way
TTITLE4=Waylon Jennings - O Come All Ye Faithfull
TTITLE5=Crystal Gayle - Hallelujah
TTITLE6=Kitty Wells - Ole Kris Kringle
TTITLE7=Charly Pride - Joy To The World
TTITLE8=Roy Clarck - God Rest Ye Merry Gentlemen
TTITLE9=Gene Autry - Frosty The Snowman
TTITLE10=Glen Campbell - Hark The Herald Angels Medley
TTITLE11=Loretta Lynn - Deck The Halls
TTITLE12=Merle Haggard - Santa Claus And Popcorn
TTITLE13=Gene Autry - Up On A Housetop
TTITLE14=Kitty Wells - Christmas
TTITLE15=Willie Nelson - The First Noel
EXTD=
EXTT0=
EXTT1=
EXTT2=
EXTT3=
EXTT4=
EXTT5=
EXTT6=
EXTT7=
EXTT8=
EXTT9=
EXTT10=
EXTT11=
EXTT12=
EXTT13=
EXTT14=
EXTT15=
PLAYORDER=
